<?xml version="1.0" standalone="no"?>
<!DOCTYPE svg PUBLIC "-//W3C//DTD SVG 20010904//EN"
 "http://www.w3.org/TR/2001/REC-SVG-20010904/DTD/svg10.dtd">
<svg version="1.0" xmlns="http://www.w3.org/2000/svg"
 width="512.000000pt" height="512.000000pt" viewBox="0 0 512.000000 512.000000"
 preserveAspectRatio="xMidYMid meet">

<g transform="translate(0.000000,512.000000) scale(0.100000,-0.100000)"
stroke="none">
<path d="M2656 4986 c-21 -8 -56 -32 -78 -53 -63 -62 -68 -92 -68 -440 l0
-304 -27 -37 c-91 -122 -475 -560 -825 -938 l-158 -172 0 -1313 0 -1314 238
-88 c255 -94 354 -126 472 -152 213 -48 216 -48 1180 -52 648 -3 933 -1 980 7
238 41 420 257 420 499 0 93 -18 162 -62 242 l-33 61 60 62 c66 67 106 141
131 238 30 118 4 281 -60 378 l-24 37 62 64 c158 163 190 395 81 595 l-33 61
52 52 c205 203 208 507 6 712 -40 41 -90 79 -129 98 -116 59 -136 61 -788 61
-326 0 -593 3 -593 6 0 3 37 132 81 286 l82 282 -6 185 c-7 221 -26 310 -92
448 -139 286 -424 478 -743 498 -63 4 -98 1 -126 -9z"/>
<path d="M0 1805 l0 -1585 600 0 600 0 0 1585 0 1585 -600 0 -600 0 0 -1585z"/>
</g>
</svg>
