<?xml version="1.0" standalone="no"?>
<!DOCTYPE svg PUBLIC "-//W3C//DTD SVG 20010904//EN"
 "http://www.w3.org/TR/2001/REC-SVG-20010904/DTD/svg10.dtd">
<svg version="1.0" xmlns="http://www.w3.org/2000/svg"
 width="626.000000pt" height="626.000000pt" viewBox="0 0 626.000000 626.000000"
 preserveAspectRatio="xMidYMid meet">

<g transform="translate(0.000000,626.000000) scale(0.100000,-0.100000)"
stroke="none">
<path d="M2835 6244 c-351 -43 -581 -98 -860 -209 -235 -93 -439 -205 -669
-365 -239 -166 -550 -477 -716 -716 -205 -294 -347 -578 -445 -894 -122 -391
-172 -857 -130 -1208 52 -432 127 -708 281 -1039 19 -40 34 -75 34 -78 0 -4 8
-19 19 -33 10 -15 37 -62 60 -106 113 -212 321 -484 518 -677 185 -182 381
-337 568 -450 l60 -37 6 247 c8 286 24 399 83 583 l15 46 -104 95 c-157 145
-289 296 -387 447 -187 288 -296 562 -354 895 -23 131 -27 179 -28 375 -1 246
18 401 71 600 142 528 439 970 870 1292 301 225 641 370 1023 435 135 23 184
27 375 27 240 0 386 -17 590 -70 598 -156 1120 -546 1428 -1065 62 -105 158
-301 177 -364 7 -22 19 -52 26 -66 23 -45 73 -247 101 -404 24 -134 27 -174
26 -380 0 -203 -3 -247 -27 -380 -89 -506 -324 -946 -691 -1294 -33 -32 -81
-77 -107 -102 l-47 -44 25 -75 c47 -141 66 -284 73 -551 l6 -247 60 37 c199
120 393 276 586 470 206 207 387 445 500 657 23 44 50 91 60 106 11 14 19 29
19 32 0 3 15 38 34 78 154 332 229 610 281 1040 50 419 -26 959 -198 1404 -96
249 -193 429 -377 698 -154 226 -492 564 -716 716 -329 224 -561 340 -884 442
-389 124 -876 176 -1235 132z"/>
<path d="M2835 5059 c-340 -56 -621 -176 -900 -386 -93 -70 -270 -243 -329
-323 -22 -30 -44 -57 -47 -60 -4 -3 -31 -43 -62 -90 -464 -714 -414 -1647 124
-2295 64 -77 201 -217 219 -223 5 -2 21 16 36 40 22 35 206 226 264 273 28 23
195 131 233 150 63 32 64 39 10 82 -87 70 -198 197 -259 300 -112 185 -166
382 -166 603 1 323 113 598 337 825 224 228 508 346 835 347 322 0 602 -115
830 -342 227 -228 341 -504 342 -830 0 -340 -127 -627 -387 -867 l-87 -81 48
-27 c61 -35 207 -131 241 -159 76 -63 201 -189 246 -249 27 -37 54 -66 58 -65
4 2 37 31 72 66 292 280 482 637 558 1047 30 163 37 436 14 591 -65 444 -250
817 -556 1123 -302 302 -668 485 -1099 551 -164 25 -419 25 -575 -1z"/>
<path d="M3010 3901 c-121 -18 -264 -82 -365 -164 -125 -101 -205 -221 -261
-387 -26 -78 -28 -96 -28 -225 1 -124 4 -149 28 -220 87 -258 262 -433 521
-521 71 -24 96 -27 220 -28 129 0 147 2 225 28 266 89 436 257 526 521 25 73
27 93 27 225 0 131 -3 153 -27 225 -89 261 -261 432 -521 519 -88 30 -244 42
-345 27z"/>
<path d="M2920 1934 c-131 -23 -270 -78 -415 -162 -98 -56 -248 -199 -329
-312 -103 -144 -184 -352 -206 -530 -5 -46 -10 -275 -10 -507 l0 -423 1170 0
1170 0 0 433 c0 477 -6 553 -59 713 -133 408 -487 715 -910 789 -104 18 -307
18 -411 -1z"/>
</g>
</svg>
