<?xml version="1.0" standalone="no"?>
<!DOCTYPE svg PUBLIC "-//W3C//DTD SVG 20010904//EN"
 "http://www.w3.org/TR/2001/REC-SVG-20010904/DTD/svg10.dtd">
<svg version="1.0" xmlns="http://www.w3.org/2000/svg"
 width="390.000000pt" height="430.000000pt" viewBox="0 0 390.000000 430.000000"
 preserveAspectRatio="xMidYMid meet">

<g transform="translate(0.000000,430.000000) scale(0.100000,-0.100000)"
stroke="none">
<path d="M1861 4283 c-59 -21 -124 -87 -144 -148 -24 -70 -24 -400 0 -470 31
-92 134 -165 233 -165 99 0 202 73 233 165 24 70 24 400 0 470 -43 127 -190
194 -322 148z"/>
<path d="M961 3483 c-24 -9 -63 -35 -86 -58 -76 -75 -75 -68 -75 -675 0 -607
-1 -600 75 -675 98 -98 252 -98 350 0 76 75 75 68 75 675 0 607 1 600 -75 675
-69 70 -169 91 -264 58z"/>
<path d="M2761 3483 c-59 -21 -124 -87 -144 -148 -24 -70 -24 -400 0 -470 31
-92 134 -165 233 -165 99 0 202 73 233 165 24 70 24 400 0 470 -43 127 -190
194 -322 148z"/>
<path d="M1861 3183 c-24 -9 -63 -35 -86 -58 -78 -78 -75 -33 -75 -975 0 -942
-3 -897 75 -975 98 -98 252 -98 350 0 78 78 75 33 75 975 0 942 3 897 -75 975
-69 70 -169 91 -264 58z"/>
<path d="M161 2583 c-59 -21 -124 -87 -144 -148 -24 -70 -24 -400 0 -470 31
-92 134 -165 233 -165 99 0 202 73 233 165 24 70 24 400 0 470 -43 127 -190
194 -322 148z"/>
<path d="M3561 2583 c-59 -21 -124 -87 -144 -148 -24 -70 -24 -400 0 -470 31
-92 134 -165 233 -165 99 0 202 73 233 165 24 70 24 400 0 470 -43 127 -190
194 -322 148z"/>
<path d="M2761 2383 c-24 -9 -63 -35 -86 -58 -76 -75 -75 -68 -75 -675 0 -607
-1 -600 75 -675 98 -98 252 -98 350 0 76 75 75 68 75 675 0 607 1 600 -75 675
-69 70 -169 91 -264 58z"/>
<path d="M961 1683 c-59 -21 -124 -87 -144 -148 -24 -70 -24 -400 0 -470 31
-92 134 -165 233 -165 99 0 202 73 233 165 24 70 24 400 0 470 -43 127 -190
194 -322 148z"/>
<path d="M1861 783 c-59 -21 -124 -87 -144 -148 -24 -70 -24 -400 0 -470 31
-92 134 -165 233 -165 99 0 202 73 233 165 24 70 24 400 0 470 -43 127 -190
194 -322 148z"/>
</g>
</svg>
