<?xml version="1.0" standalone="no"?>
<!DOCTYPE svg PUBLIC "-//W3C//DTD SVG 20010904//EN"
 "http://www.w3.org/TR/2001/REC-SVG-20010904/DTD/svg10.dtd">
<svg version="1.0" xmlns="http://www.w3.org/2000/svg"
 width="512.000000pt" height="289.000000pt" viewBox="0 0 512.000000 289.000000"
 preserveAspectRatio="xMidYMid meet">

<g transform="translate(0.000000,289.000000) scale(0.100000,-0.100000)"
stroke="none">
<path d="M2641 2859 c-19 -13 -44 -37 -55 -52 l-21 -28 -3 -1325 c-2 -1303 -2
-1325 18 -1363 10 -22 36 -50 57 -62 l38 -24 875 0 c823 0 879 1 950 19 235
59 428 212 530 420 70 141 84 204 84 361 0 149 -14 214 -73 340 -94 199 -256
342 -471 417 -92 32 -100 33 -256 33 l-160 0 -17 99 c-47 273 -179 533 -376
739 -264 275 -593 428 -956 443 -125 6 -131 5 -164 -17z"/>
<path d="M2000 2538 c-18 -13 -43 -36 -54 -51 -21 -28 -21 -29 -24 -1193 -2
-1144 -2 -1165 18 -1203 57 -113 223 -113 280 0 20 38 20 59 18 1203 -3 1164
-3 1165 -24 1193 -35 48 -82 73 -134 73 -32 0 -57 -7 -80 -22z"/>
<path d="M720 1898 c-18 -13 -43 -36 -54 -51 -21 -28 -21 -34 -24 -873 -2
-825 -2 -845 18 -883 10 -21 36 -49 56 -62 78 -48 183 -19 224 62 20 38 20 58
18 883 -3 839 -3 845 -24 873 -35 48 -82 73 -134 73 -32 0 -57 -7 -80 -22z"/>
<path d="M1360 1898 c-18 -13 -43 -36 -54 -51 -21 -28 -21 -34 -24 -873 -2
-825 -2 -845 18 -883 57 -113 223 -113 280 0 20 38 20 58 18 883 -3 839 -3
845 -24 873 -35 48 -82 73 -134 73 -32 0 -57 -7 -80 -22z"/>
<path d="M80 1258 c-18 -13 -43 -36 -54 -51 -21 -28 -21 -39 -24 -553 -2 -506
-2 -525 17 -563 58 -113 224 -113 282 0 19 38 19 57 17 563 -3 514 -3 525 -24
553 -35 48 -82 73 -134 73 -32 0 -57 -7 -80 -22z"/>
</g>
</svg>
