<?xml version="1.0" standalone="no"?>
<!DOCTYPE svg PUBLIC "-//W3C//DTD SVG 20010904//EN"
 "http://www.w3.org/TR/2001/REC-SVG-20010904/DTD/svg10.dtd">
<svg version="1.0" xmlns="http://www.w3.org/2000/svg"
 width="866.000000pt" height="503.000000pt" viewBox="0 0 866.000000 503.000000"
 preserveAspectRatio="xMidYMid meet">

<g transform="translate(0.000000,503.000000) scale(0.100000,-0.100000)"
 stroke="none">
<path d="M3440 5009 c-52 -5 -113 -13 -135 -18 -22 -6 -56 -13 -75 -16 -19 -4
-48 -11 -65 -15 -16 -5 -57 -17 -90 -26 -110 -31 -394 -155 -403 -176 -2 -5
-9 -8 -16 -8 -6 0 -21 -7 -31 -15 -11 -9 -52 -37 -92 -63 -185 -122 -389 -332
-531 -545 -58 -87 -155 -269 -173 -326 -52 -163 -34 -152 -261 -156 -192 -4
-269 -14 -423 -58 -96 -28 -263 -98 -330 -140 -84 -52 -207 -137 -239 -166
-63 -57 -148 -142 -190 -191 -49 -56 -165 -231 -193 -290 -81 -172 -106 -246
-149 -435 -26 -113 -26 -455 -1 -570 52 -237 133 -432 250 -603 72 -105 94
-130 211 -245 166 -163 377 -289 601 -360 141 -45 188 -55 310 -67 135 -13
4271 -13 4384 0 95 11 221 38 235 51 6 5 16 9 24 9 15 0 51 15 152 64 232 113
450 335 559 571 107 230 144 500 102 735 -30 162 -51 227 -115 355 -78 155
-203 311 -331 411 -27 21 -52 41 -55 44 -18 18 -158 96 -220 123 -141 62 -247
88 -380 94 -150 7 -146 3 -153 165 -5 133 -15 211 -43 343 -19 89 -63 230 -90
292 -8 17 -14 34 -14 38 0 7 -75 157 -106 213 -159 284 -403 534 -691 710
-105 63 -301 154 -398 182 -16 5 -55 17 -85 26 -216 64 -483 86 -750 63z m405
-480 c175 -25 313 -67 460 -140 112 -56 116 -57 200 -116 97 -69 224 -183 280
-253 60 -74 115 -151 141 -195 16 -27 34 -59 41 -70 7 -11 16 -29 21 -40 47
-100 62 -136 62 -147 0 -8 4 -18 9 -23 16 -16 56 -188 71 -300 12 -89 12 -299
0 -390 -21 -161 -65 -308 -136 -449 -19 -37 -22 -52 -13 -62 12 -15 17 -18
116 -70 32 -17 90 -48 128 -69 164 -89 152 -85 167 -66 19 21 78 147 78 164 0
7 6 21 13 32 8 11 22 49 33 84 25 84 54 104 139 98 85 -7 198 -27 210 -38 5
-5 16 -9 25 -9 26 0 148 -66 223 -122 180 -134 297 -368 297 -596 0 -212 -93
-421 -253 -567 -39 -36 -77 -65 -83 -65 -7 0 -14 -4 -16 -9 -4 -11 -116 -67
-174 -87 -113 -38 -97 -38 -2274 -38 -2191 0 -2173 0 -2310 40 -131 37 -292
121 -390 200 -110 90 -241 247 -281 338 -5 12 -13 28 -17 36 -30 53 -49 102
-88 235 -26 86 -26 391 -1 485 51 188 129 342 228 455 127 144 239 229 391
299 89 41 95 43 188 68 63 17 105 21 265 21 196 0 191 1 350 -50 65 -21 235
-104 235 -115 0 -4 5 -8 11 -8 6 0 24 -11 41 -25 16 -14 34 -25 38 -25 5 0 44
46 86 103 43 56 81 104 85 107 17 13 112 147 113 159 1 17 -160 127 -246 168
l-59 28 4 41 c8 76 127 297 235 434 52 66 198 209 267 261 104 79 321 199 359
199 7 0 16 3 20 7 15 16 170 59 266 74 169 27 297 30 445 8z"/>
<path d="M7760 3390 c-91 -88 -164 -167 -162 -175 1 -8 23 -36 48 -62 77 -82
201 -252 261 -358 24 -43 100 -198 113 -230 4 -11 13 -33 19 -48 137 -342 174
-779 95 -1152 -27 -128 -61 -244 -90 -312 -8 -17 -14 -34 -14 -38 0 -3 -28
-63 -61 -133 -79 -163 -182 -322 -272 -422 -84 -93 -107 -121 -107 -129 0 -19
313 -321 332 -321 20 0 80 61 172 175 67 83 173 230 189 265 4 8 16 29 26 45
32 50 151 291 151 307 0 8 4 18 8 24 10 10 65 159 82 219 66 238 110 529 110
736 0 156 -37 452 -75 594 -32 123 -62 222 -85 280 -4 11 -15 40 -25 65 -18
46 -50 120 -88 200 -24 50 -150 263 -176 296 -9 12 -23 32 -31 44 -8 12 -20
28 -25 34 -6 6 -32 39 -57 72 -52 67 -158 184 -167 184 -4 0 -81 -72 -171
-160z"/>
<path d="M7080 2831 c-88 -88 -160 -165 -160 -171 0 -7 17 -32 38 -54 136
-152 223 -312 275 -506 13 -49 23 -112 42 -262 7 -54 -19 -280 -41 -353 -35
-119 -58 -179 -90 -238 -9 -15 -21 -38 -27 -50 -20 -37 -104 -160 -128 -187
-12 -14 -31 -35 -42 -48 l-21 -22 75 -71 c41 -38 116 -111 167 -160 55 -54 99
-89 109 -87 14 3 39 29 144 156 11 12 19 25 19 28 0 3 12 23 28 43 38 51 45
63 103 181 73 150 81 170 106 255 85 292 96 623 29 900 -37 151 -37 152 -103
305 -44 102 -171 316 -202 340 -4 3 -17 18 -29 34 -41 54 -111 126 -121 126
-6 0 -83 -72 -171 -159z"/>
</g>
</svg>
