<?xml version="1.0" standalone="no"?>
<!DOCTYPE svg PUBLIC "-//W3C//DTD SVG 20010904//EN"
 "http://www.w3.org/TR/2001/REC-SVG-20010904/DTD/svg10.dtd">
<svg version="1.0" xmlns="http://www.w3.org/2000/svg"
 width="512.000000pt" height="512.000000pt" viewBox="0 0 512.000000 512.000000"
 preserveAspectRatio="xMidYMid meet">

<g transform="translate(0.000000,512.000000) scale(0.100000,-0.100000)"
stroke="none">
<path d="M1218 5109 c-167 -20 -364 -85 -514 -170 -388 -223 -644 -611 -693
-1052 -15 -133 -15 -2521 0 -2654 71 -643 579 -1151 1222 -1222 133 -15 2521
-15 2654 0 643 71 1151 579 1222 1222 15 133 15 2521 0 2654 -71 643 -579
1151 -1222 1222 -118 13 -2554 13 -2669 0z m2892 -671 c150 -45 265 -177 290
-334 30 -185 -83 -378 -261 -445 -152 -58 -333 -17 -443 101 -231 247 -88 646
249 693 40 5 121 -2 165 -15z m-1366 -493 c309 -41 577 -174 802 -399 550
-550 550 -1422 0 -1972 -550 -550 -1422 -550 -1972 0 -550 550 -550 1422 0
1972 315 314 734 457 1170 399z"/>
<path d="M3965 4153 c-32 -8 -74 -54 -81 -89 -8 -46 19 -98 63 -119 46 -22 91
-13 128 25 45 47 36 130 -18 164 -27 17 -65 25 -92 19z"/>
<path d="M2394 3645 c-233 -36 -441 -142 -609 -310 -431 -430 -431 -1120 0
-1550 430 -431 1120 -431 1550 0 431 430 431 1120 0 1550 -249 249 -597 364
-941 310z"/>
</g>
</svg>
