<?xml version="1.0" standalone="no"?>
<!DOCTYPE svg PUBLIC "-//W3C//DTD SVG 20010904//EN"
 "http://www.w3.org/TR/2001/REC-SVG-20010904/DTD/svg10.dtd">
<svg version="1.0" xmlns="http://www.w3.org/2000/svg"
 width="512.000000pt" height="512.000000pt" viewBox="0 0 512.000000 512.000000"
 preserveAspectRatio="xMidYMid meet">

<g transform="translate(0.000000,512.000000) scale(0.100000,-0.100000)"
stroke="none">
<path d="M2440 5101 c-54 -28 -80 -74 -80 -140 0 -269 -73 -588 -184 -809
-144 -286 -292 -465 -741 -892 -153 -146 -326 -319 -384 -386 -271 -308 -405
-570 -468 -914 -27 -149 -25 -471 6 -610 88 -410 335 -811 698 -1132 143 -127
251 -207 291 -214 49 -9 106 11 141 51 45 52 47 84 12 215 -117 441 -143 879
-75 1235 45 233 137 459 266 650 80 118 248 304 248 274 0 -7 -7 -48 -16 -89
-22 -102 -23 -295 -1 -380 66 -255 241 -407 541 -472 82 -18 135 -22 286 -22
103 -1 231 5 288 13 l103 13 29 -27 c16 -15 42 -53 59 -85 118 -220 66 -612
-140 -1065 -39 -87 -59 -143 -59 -169 0 -82 82 -154 163 -143 108 15 509 348
696 579 440 546 552 1195 330 1928 -212 704 -739 1505 -1464 2223 -169 168
-353 334 -405 366 -43 26 -94 27 -140 2z"/>
</g>
</svg>
