<?xml version="1.0" standalone="no"?>
<!DOCTYPE svg PUBLIC "-//W3C//DTD SVG 20010904//EN"
 "http://www.w3.org/TR/2001/REC-SVG-20010904/DTD/svg10.dtd">
<svg version="1.0" xmlns="http://www.w3.org/2000/svg"
 width="512.000000pt" height="512.000000pt" viewBox="0 0 512.000000 512.000000"
 preserveAspectRatio="xMidYMid meet">

<g transform="translate(0.000000,512.000000) scale(0.100000,-0.100000)"
stroke="none">
<path d="M3160 5109 c-324 -37 -642 -169 -904 -377 -96 -75 -518 -497 -548
-547 -164 -268 -46 -604 248 -705 114 -40 277 -24 384 38 25 14 153 132 285
261 250 246 308 291 439 340 154 57 342 69 491 31 293 -75 522 -304 595 -595
26 -102 28 -271 5 -374 -45 -197 -101 -279 -386 -567 -211 -213 -231 -236
-266 -309 -33 -70 -38 -90 -41 -173 -3 -69 0 -111 13 -158 61 -224 297 -375
527 -336 134 23 183 55 387 256 235 231 345 355 432 485 131 194 227 431 271
669 26 140 31 435 10 567 -132 808 -754 1405 -1557 1495 -105 11 -278 11 -385
-1z"/>
<path d="M3243 3815 c-127 -35 -108 -17 -1010 -918 -908 -907 -893 -891 -928
-1022 -86 -333 218 -646 557 -574 133 29 106 4 1025 922 682 681 859 863 882
908 103 192 72 408 -79 559 -119 119 -290 167 -447 125z"/>
<path d="M1083 3476 c-107 -26 -159 -63 -342 -241 -322 -314 -455 -480 -561
-698 -326 -675 -201 -1461 319 -2000 587 -609 1534 -711 2236 -243 136 92 258
200 490 437 200 205 234 255 257 386 43 255 -144 510 -398 542 -115 14 -223
-9 -319 -67 -22 -13 -139 -122 -260 -242 -224 -221 -266 -257 -345 -302 -219
-122 -513 -133 -738 -28 -188 88 -341 248 -416 435 -83 206 -75 454 19 652 55
118 87 157 320 393 266 270 294 310 314 453 45 326 -258 600 -576 523z"/>
</g>
</svg>
