<?xml version="1.0" standalone="no"?>
<!DOCTYPE svg PUBLIC "-//W3C//DTD SVG 20010904//EN"
 "http://www.w3.org/TR/2001/REC-SVG-20010904/DTD/svg10.dtd">
<svg version="1.0" xmlns="http://www.w3.org/2000/svg"
 width="512.000000pt" height="512.000000pt" viewBox="0 0 512.000000 512.000000"
 preserveAspectRatio="xMidYMid meet">

<g transform="translate(0.000000,512.000000) scale(0.100000,-0.100000)"
 stroke="none">
<path d="M2485 4991 c-16 -10 -37 -27 -46 -37 -9 -10 -157 -369 -329 -798
-173 -428 -318 -779 -324 -781 -6 -2 -382 -29 -836 -60 -922 -63 -885 -58
-929 -136 -29 -51 -25 -115 10 -158 13 -17 296 -260 629 -541 333 -282 618
-524 633 -539 l28 -27 -206 -822 c-113 -452 -205 -832 -205 -844 0 -37 42 -99
80 -119 19 -11 54 -19 77 -19 37 0 110 43 767 454 l726 455 728 -455 727 -456
51 4 c67 6 107 35 130 95 l18 46 -207 829 c-114 456 -205 833 -202 838 3 4
293 252 644 550 436 369 645 553 655 575 22 46 20 90 -6 136 -43 76 -8 71
-938 136 l-835 58 -315 782 c-174 430 -324 791 -335 803 -47 52 -134 66 -190
31z"/>
</g>
</svg>
