<?xml version="1.0" standalone="no"?>
<!DOCTYPE svg PUBLIC "-//W3C//DTD SVG 20010904//EN"
 "http://www.w3.org/TR/2001/REC-SVG-20010904/DTD/svg10.dtd">
<svg version="1.0" xmlns="http://www.w3.org/2000/svg"
 width="512.000000pt" height="427.000000pt" viewBox="0 0 512.000000 427.000000"
 preserveAspectRatio="xMidYMid meet">

<g transform="translate(0.000000,427.000000) scale(0.100000,-0.100000)"
fill="#000000" stroke="none">
<path d="M3072 4243 c-18 -9 -43 -30 -55 -47 -22 -31 -22 -33 -25 -512 l-3
-481 -37 -7 c-20 -3 -62 -6 -92 -6 -80 0 -285 -27 -425 -55 -1163 -235 -2101
-1151 -2359 -2306 -65 -291 -96 -653 -62 -733 28 -68 115 -108 188 -87 55 17
90 55 167 183 398 661 1086 1126 1859 1258 177 30 315 40 550 40 l212 0 0
-475 c0 -517 -1 -509 56 -554 15 -12 44 -26 65 -31 88 -24 40 -65 1041 905
508 492 933 912 945 933 26 43 29 88 9 136 -14 35 -1823 1801 -1881 1837 -37
23 -108 24 -153 2z"/>
</g>
</svg>
