<?xml version="1.0" standalone="no"?>
<!DOCTYPE svg PUBLIC "-//W3C//DTD SVG 20010904//EN"
 "http://www.w3.org/TR/2001/REC-SVG-20010904/DTD/svg10.dtd">
<svg version="1.0" xmlns="http://www.w3.org/2000/svg"
 width="512.000000pt" height="512.000000pt" viewBox="0 0 512.000000 512.000000"
 preserveAspectRatio="xMidYMid meet">

<g transform="translate(0.000000,512.000000) scale(0.100000,-0.100000)"
 stroke="none">
<path d="M1955 5106 c-16 -7 -40 -24 -52 -38 -13 -14 -229 -557 -533 -1343
-557 -1439 -532 -1362 -480 -1435 44 -62 22 -60 785 -60 588 0 695 -2 695 -14
0 -8 -112 -467 -250 -1021 -137 -554 -250 -1025 -250 -1047 0 -100 92 -168
189 -139 20 6 47 21 58 33 30 32 2112 3275 2130 3318 29 68 -6 158 -73 186
-27 11 -144 14 -634 14 -330 0 -600 3 -600 6 0 3 135 312 300 686 237 538 300
690 300 723 0 51 -31 101 -80 126 -33 18 -73 19 -755 19 -578 -1 -726 -3 -750
-14z"/>
</g>
</svg>
